<mxfile host="app.diagrams.net" modified="2024-02-19T12:44:26.652Z" agent="Mozilla/5.0 (Windows NT 10.0; Win64; x64) AppleWebKit/537.36 (KHTML, like Gecko) Chrome/121.0.0.0 Safari/537.36" version="23.1.5" etag="8xEhhU3mnQVc__H05bNQ" type="github">
  <diagram name="Page-1" id="KJxD_meUdtI3tt7zbqp5">
    <mxGraphModel>
      <root>
        <mxCell id="0" />
        <mxCell id="1" parent="0" />
      </root>
    </mxGraphModel>
  </diagram>
</mxfile>
